<svg width="16" height="16" viewBox="0 0 16 16" fill="current" xmlns="http://www.w3.org/2000/svg">
<path fill-rule="evenodd" clip-rule="evenodd" d="M16 4C16 5.86384 14.7252 7.42994 13 7.87398V12.5H11V7.87398C10.2126 7.67133 9.51912 7.23498 8.99776 6.64328C8.93277 8.72115 7.45913 10.4439 5.5 10.8885V16H3.5V10.8885C1.49601 10.4338 0 8.64159 0 6.5C0 4.01472 2.01472 2 4.5 2C5.92057 2 7.1874 2.65825 8.01211 3.68638C8.17208 1.62382 9.89641 0 12 0C14.2091 0 16 1.79086 16 4ZM12 6C13.1046 6 14 5.10457 14 4C14 2.89543 13.1046 2 12 2C10.8954 2 10 2.89543 10 4C10 5.10457 10.8954 6 12 6ZM4.5 9C5.88071 9 7 7.88071 7 6.5C7 5.11929 5.88071 4 4.5 4C3.11929 4 2 5.11929 2 6.5C2 7.88071 3.11929 9 4.5 9Z" fill="current"/>
</svg>
