<?xml version="1.0" encoding="utf-8"?>
<!-- Generator: Adobe Illustrator 25.3.1, SVG Export Plug-In . SVG Version: 6.00 Build 0)  -->
<svg version="1.1" id="Layer_1" xmlns="http://www.w3.org/2000/svg" xmlns:xlink="http://www.w3.org/1999/xlink" x="0px" y="0px"
	 viewBox="0 0 622 147" style="enable-background:new 0 0 622 147;" xml:space="preserve">
<style type="text/css">
	.st0{fill:#192732;}
	.st1{fill:none;}
	.st2{fill:#FABC13;}
</style>
<g>
	<polygon class="st0" points="29.75,9.59 29.75,39.02 0.45,67.09 0.45,0.26 	"/>
	<path class="st0" d="M107.87,93.03c0,14.85-5.24,27.51-15.72,37.99C81.67,141.51,69,146.74,54.16,146.74
		c-14.84,0-27.51-5.24-37.99-15.73C5.69,120.53,0.45,107.88,0.45,93.03v-2.93h29.3v2.93c0,6.78,2.37,12.54,7.12,17.29
		c4.76,4.75,10.52,7.13,17.29,7.13c6.77,0,12.53-2.38,17.28-7.13c4.76-4.75,7.13-10.51,7.13-17.29c0-1-0.05-1.98-0.16-2.93h29.39
		C107.85,91.07,107.87,92.03,107.87,93.03z"/>
	<path class="st0" d="M114.22,97.91V39.32h29.3v58.59c0,5.4,1.9,10.01,5.71,13.82s8.41,5.71,13.82,5.71c5.4,0,10.01-1.9,13.82-5.71
		s5.71-8.41,5.71-13.82V39.32h29.3v58.59c0,13.48-4.77,24.98-14.31,34.52c-9.54,9.54-21.04,14.31-34.52,14.31
		s-24.98-4.77-34.52-14.31C118.99,122.9,114.22,111.39,114.22,97.91z"/>
	<path class="st0" d="M236.29,29.55c-4.04,0-7.49-1.43-10.35-4.3c-2.87-2.86-4.3-6.31-4.3-10.35c0-4.04,1.43-7.49,4.3-10.35
		c2.86-2.86,6.31-4.3,10.35-4.3c4.04,0,7.49,1.43,10.35,4.3c2.86,2.87,4.3,6.32,4.3,10.35c0,4.04-1.43,7.49-4.3,10.35
		C243.78,28.12,240.33,29.55,236.29,29.55z M250.94,146.74h-29.3V39.32h29.3V146.74z"/>
	<path class="st0" d="M290,146.74h-29.3V10.02H290V146.74z"/>
	<path class="st0" d="M486,105.33l28.61,8.2c-2.6,6.38-6.54,12.21-11.82,17.48c-10.48,10.48-23.14,15.72-37.99,15.72
		s-27.51-5.24-37.99-15.72c-10.48-10.48-15.72-23.14-15.72-37.99s5.24-27.51,15.72-37.99c10.48-10.48,23.14-15.72,37.99-15.72
		s27.51,5.24,37.99,15.72c5.27,5.27,9.21,11.1,11.82,17.48L486,80.72c-1.04-1.76-2.34-3.42-3.91-4.98
		c-4.75-4.75-10.51-7.13-17.29-7.13c-6.77,0-12.53,2.38-17.29,7.13c-4.75,4.75-7.13,10.51-7.13,17.29c0,6.77,2.38,12.53,7.13,17.29
		c4.75,4.75,10.51,7.13,17.29,7.13c6.77,0,12.53-2.38,17.29-7.13C483.66,108.75,484.96,107.09,486,105.33z"/>
	<path class="st0" d="M567.84,146.74c-14.84,0-27.51-5.24-37.99-15.72c-10.48-10.48-15.72-23.14-15.72-37.99s5.24-27.51,15.72-37.99
		c10.48-10.48,23.14-15.72,37.99-15.72s27.51,5.24,37.99,15.72c10.48,10.48,15.72,23.14,15.72,37.99s-5.24,27.51-15.72,37.99
		C595.34,141.5,582.68,146.74,567.84,146.74z M567.84,117.44c6.77,0,12.53-2.38,17.29-7.13c4.75-4.75,7.13-10.51,7.13-17.29
		c0-6.77-2.38-12.53-7.13-17.29c-4.75-4.75-10.51-7.13-17.29-7.13c-6.77,0-12.53,2.38-17.29,7.13c-4.75,4.75-7.13,10.51-7.13,17.29
		c0,6.77,2.38,12.53,7.13,17.29C555.3,115.07,561.06,117.44,567.84,117.44z"/>
	<path class="st0" d="M297.32,93.03c0-14.84,5.24-27.5,15.73-37.98c10.42-10.43,23-15.67,37.74-15.73h-0.24
		c-14.85,0-27.51,5.24-37.99,15.73c-10.48,10.48-15.72,23.14-15.72,37.98c0,14.85,5.24,27.51,15.72,37.99
		c10.48,10.49,23.14,15.73,37.99,15.73h0.24c-14.74-0.06-27.32-5.3-37.74-15.73C302.56,120.53,297.32,107.88,297.32,93.03z"/>
	<path class="st0" d="M375.45,10.03v35.24c-4.48-2.38-9.26-4.04-14.33-5c-3.32-0.62-6.76-0.94-10.33-0.95
		c-14.74,0.06-27.32,5.3-37.74,15.73c-10.49,10.48-15.73,23.14-15.73,37.98c0,14.85,5.24,27.51,15.73,37.99
		c10.42,10.43,23,15.67,37.74,15.73h0.24c14.85,0,27.51-5.24,37.99-15.73c10.48-10.48,15.73-23.14,15.73-37.99V0.26L375.45,10.03z
		 M350.55,117.45c-6.78,0-12.54-2.38-17.29-7.13s-7.13-10.51-7.13-17.29c0-6.77,2.38-12.53,7.13-17.28s10.51-7.13,17.29-7.13
		c0.08,0,0.16,0,0.24,0.01c6.67,0.05,12.35,2.43,17.04,7.12c4.75,4.75,7.13,10.51,7.13,17.28c0,6.78-2.38,12.54-7.13,17.29
		c-4.69,4.69-10.37,7.07-17.04,7.12C350.71,117.45,350.63,117.45,350.55,117.45z"/>
	<line class="st1" x1="107.81" y1="90.1" x2="107.8" y2="90.1"/>
	<polygon class="st2" points="107.8,79.09 107.8,79.09 78.51,79.09 78.4,78.98 55.67,57.66 54.82,56.86 54.13,56.16 53.43,56.86 
		52.63,57.61 29.75,79.09 0.45,79.09 29.75,51.02 40.15,41.04 53.43,28.32 54.13,27.62 54.83,28.33 	"/>
</g>
</svg>
