<svg xmlns="http://www.w3.org/2000/svg" width="32" height="32" viewBox="0 0 32 32"><defs><style>.a{fill:current;}</style></defs><path class="a" d="M10,18H6.5a.5.5,0,0,1-.5-.5v-1a.5.5,0,0,1,.5-.5H10V12H6.5a.5.5,0,0,1-.5-.5v-1a.5.5,0,0,1,.5-.5H10V6H6.5A.5.5,0,0,1,6,5.5v-1A.5.5,0,0,1,6.5,4H10V2A2,2,0,0,0,8,0H2A2,2,0,0,0,0,2V30a1.924,1.924,0,0,0,.1.488l9.9-9.9Zm20,4H28v3.5a.5.5,0,0,1-.5.5h-1a.5.5,0,0,1-.5-.5V22H22v3.5a.5.5,0,0,1-.5.5h-1a.5.5,0,0,1-.5-.5V22H16v3.5a.5.5,0,0,1-.5.5h-1a.5.5,0,0,1-.5-.5V22H11.414l-9.9,9.9A1.929,1.929,0,0,0,2,32H30a2,2,0,0,0,2-2V24A2,2,0,0,0,30,22Z"/></svg>